<svg viewBox="0 0 96 96" xmlns="http://www.w3.org/2000/svg" xmlns:xlink="http://www.w3.org/1999/xlink" id="Icons_SoccerPlayer" overflow="hidden"><g id="_223_Soccer_B"><path d="M77.29 44.15 65.6 42.76 66.13 28.32C66.1803 26.8865 65.4592 25.5358 64.24 24.78L56.82 20.18C56.4383 19.9414 56.0191 19.769 55.58 19.67L36.39 15.43C35.0068 15.1245 33.5653 15.5734 32.6 16.61L24 25.8C22.4923 27.4154 22.5796 29.9473 24.195 31.455 25.8104 32.9627 28.3423 32.8754 29.85 31.26L36.85 23.74 48.5 26.31 35.5 41.15C35.1 41.6314 34.7639 42.1625 34.5 42.73 34.3954 42.8551 34.3018 42.9889 34.22 43.13L24.79 59.83 11.25 52C9.33633 50.8954 6.88957 51.5513 5.785 53.465 4.68043 55.3787 5.33633 57.8254 7.25 58.93L24.31 68.77C24.9164 69.1256 25.607 69.3121 26.31 69.31 26.6645 69.3084 27.0174 69.2613 27.36 69.17 28.3897 68.8894 29.2646 68.2089 29.79 67.28L38 52.69 51 63.69 48.77 85.33C48.543 87.5275 50.1404 89.4928 52.3379 89.7198 52.3386 89.7199 52.3393 89.7199 52.34 89.72L52.76 89.72C54.8185 89.7308 56.549 88.1776 56.76 86.13L59.18 62.42C59.297 61.1181 58.7706 59.8411 57.77 59L46.77 49.63 57.81 37 57.47 46.18C57.4091 48.2521 58.9413 50.0273 61 50.27L76.35 52.09 76.83 52.09C79.0391 52.217 80.933 50.5291 81.06 48.32 81.187 46.1109 79.4991 44.217 77.29 44.09Z"/><circle cx="83" cy="82" r="8"/><circle cx="67" cy="14" r="8" id="head"/></g></svg>